# xmcd
#
# Track frame offsets: 
#        150
#        18168
#        38936
#        55959
#        72066
#        90113
#        108033
#        125190
#        154590
#        173559
#        190000
#        202774
#        217404
#
# Disc length: 3099 seconds
#
# Revision: 0
# Processed by: cddbd v1.5.2PL0 Copyright (c) Steve Scherf et al.
# Submitted via: ExactAudioCopy v0.99pb4
#
DISCID=a30c190d
DTITLE=Will Young - Let It Go
DYEAR=2008
DGENRE=Pop
TTITLE0=Changes
TTITLE1=Grace
TTITLE2=Won't Look Down
TTITLE3=Tell Me The Worst
TTITLE4=I Won't Give Up
TTITLE5=Disconnected
TTITLE6=If Love Equals Nothing
TTITLE7=Love
TTITLE8=Simple Philosophy
TTITLE9=Let It Go
TTITLE10=Are You Happy
TTITLE11=You Don't Know
TTITLE12=Free My Mind
EXTD=
EXTT0=
EXTT1=
EXTT2=
EXTT3=
EXTT4=
EXTT5=
EXTT6=
EXTT7=
EXTT8=
EXTT9=
EXTT10=
EXTT11=
EXTT12=
PLAYORDER=
